<?xml version="1.0" encoding="iso-8859-1"?>
<!-- Generator: Adobe Illustrator 19.0.0, SVG Export Plug-In . SVG Version: 6.00 Build 0)  -->
<svg version="1.1" id="Layer_1" xmlns="http://www.w3.org/2000/svg" xmlns:xlink="http://www.w3.org/1999/xlink" x="0px" y="0px"
	 viewBox="0 0 512 512" style="enable-background:new 0 0 512 512;" xml:space="preserve">
<path style="fill:#ACABB1;" d="M411.57,0.003c-0.296-0.003-0.549-0.003-0.801,0L256,0.013L101.972,0.02
	c-0.756-0.026-1.475-0.028-2.318,0C44.691,0.663,0,45.869,0,100.849v310.303C0,466.761,45.241,512,100.849,512H256h155.152
	C466.759,512,512,466.761,512,411.152V100.849C512,45.443,466.994,0.258,411.57,0.003z"/>
<path style="fill:#D8143A;" d="M256,186.184c-12.853,0-23.273,10.42-23.273,23.273v23.271V256c0,12.853,10.42,23.273,23.273,23.273
	s23.273-10.42,23.273-23.273v-23.273v-23.271C279.273,196.604,268.853,186.184,256,186.184z"/>
<path style="fill:#DEDEE0;" d="M407.205,195.288C382.258,133.206,322.906,93.091,256,93.091s-126.258,40.114-151.204,102.197
	c-3.477,8.651-1.455,18.542,5.139,25.136l52.035,52.033c4.364,4.364,10.282,6.816,16.455,6.816H256
	c-12.853,0-23.273-10.42-23.273-23.273v-23.273v-23.271c0-12.853,10.42-23.273,23.273-23.273s23.273,10.42,23.273,23.273v23.271V256
	c0,12.853-10.42,23.273-23.273,23.273h77.576c6.173,0,12.091-2.451,16.455-6.816l52.035-52.033
	C408.66,213.83,410.681,203.939,407.205,195.288z"/>
<path style="fill:#D6D5D8;" d="M104.796,195.288c-3.477,8.651-1.455,18.542,5.139,25.136l52.035,52.033
	c4.364,4.364,10.282,6.816,16.455,6.816H256c-12.853,0-23.273-10.42-23.273-23.273v-23.273v-23.271
	c0-12.853,10.42-23.273,23.273-23.273V93.091C189.094,93.091,129.742,133.206,104.796,195.288z"/>
<path style="fill:#B8002B;" d="M232.727,209.456v23.271V256c0,12.853,10.42,23.273,23.273,23.273v-93.089
	C243.147,186.184,232.727,196.604,232.727,209.456z"/>
<path style="fill:#898890;" d="M178.424,279.273c-6.173,0-12.091-2.451-16.455-6.816l-52.036-52.033
	c-6.592-6.594-8.616-16.485-5.139-25.136C129.742,133.206,189.094,93.091,256,93.091V0.013L101.972,0.02
	c-0.756-0.026-1.475-0.028-2.318,0C44.691,0.663,0,45.869,0,100.849v310.303C0,466.761,45.241,512,100.849,512H256V279.273H178.424z
	"/>
<g>
</g>
<g>
</g>
<g>
</g>
<g>
</g>
<g>
</g>
<g>
</g>
<g>
</g>
<g>
</g>
<g>
</g>
<g>
</g>
<g>
</g>
<g>
</g>
<g>
</g>
<g>
</g>
<g>
</g>
</svg>
